PathFileType	4	(X/Y/Z)	Walk8.trc
DataRate	CameraRate	NumFrames	NumMarkers	Units	OrigDataRate	OrigDataStartFrame	OrigNumFrames
200.000000	200.000000	6	61	mm	200.000000	545	754
Frame#	Times		RCAR		LUA1		LCAR		LFA1		LWRU		RTB3		RFHD		LElbow		RToe		LTH3		RTH2		RMT5		LWRR		LElbowM		RTB2		RMT1		LFHD		RPSI		STRN		RLFC		C7		RTH1		LTH4		RFA1		LTH2		T10		LLFC		RLMAL		LASI		CLAV		LPSI		RUA1		RBack		RTH3		RElbowM		LACR1		LCAL		RElbow		LMFC		LTB1		RWRR		RTH4		LTB2		LMT5		RTB4		RACR1		RMFC		LTB3		RMMAL		LTB4		LLMAL		LToe		RBHD		RWRU		RTB1		LTH1		LMMAL		LBHD		RCAL		LMT1		RASI
			X1	Y1	Z1	X2	Y2	Z2	X3	Y3	Z3	X4	Y4	Z4	X5	Y5	Z5	X6	Y6	Z6	X7	Y7	Z7	X8	Y8	Z8	X9	Y9	Z9	X10	Y10	Z10	X11	Y11	Z11	X12	Y12	Z12	X13	Y13	Z13	X14	Y14	Z14	X15	Y15	Z15	X16	Y16	Z16	X17	Y17	Z17	X18	Y18	Z18	X19	Y19	Z19	X20	Y20	Z20	X21	Y21	Z21	X22	Y22	Z22	X23	Y23	Z23	X24	Y24	Z24	X25	Y25	Z25	X26	Y26	Z26	X27	Y27	Z27	X28	Y28	Z28	X29	Y29	Z29	X30	Y30	Z30	X31	Y31	Z31	X32	Y32	Z32	X33	Y33	Z33	X34	Y34	Z34	X35	Y35	Z35	X36	Y36	Z36	X37	Y37	Z37	X38	Y38	Z38	X39	Y39	Z39	X40	Y40	Z40	X41	Y41	Z41	X42	Y42	Z42	X43	Y43	Z43	X44	Y44	Z44	X45	Y45	Z45	X46	Y46	Z46	X47	Y47	Z47	X48	Y48	Z48	X49	Y49	Z49	X50	Y50	Z50	X51	Y51	Z51	X52	Y52	Z52	X53	Y53	Z53	X54	Y54	Z54	X55	Y55	Z55	X56	Y56	Z56	X57	Y57	Z57	X58	Y58	Z58	X59	Y59	Z59	X60	Y60	Z60	X61	Y61	Z61

545	2.725	-173.67	804.62	369.91	-129.21	1293.4	-261.98	135	912.74	-302.34	-34.197	1012	-316.55	52.931	908.38	-295.88	77.44	196.62	110.68	-167.49	1623.7	-55.116	-119.68	1140.9	-311.4	238.77	44.052	132.22	-232.32	604.01	-157.6	13.404	720.75	177.35	140.46	23.978	184.53	104.45	954.2	-248.93	-153.13	1113	-245.35	48.84	280.78	179.32	190.12	42.788	109.46	-160.21	1630.1	86.095	-289.76	1003.3	65.578	-9.3859	1234.1	8.6714	0.62403	498.2	191.14	-188.78	1494.8	15.965	-82.513	789.19	216.5	-207.81	692.59	-166.49	-240.67	979.58	341.02	-140.92	677.85	-145.49	-293.26	1272.8	12.293	-273.58	505.56	-150.43	44.676	66.839	150.97	-90.027	1017.3	-123.8	-57.121	1406.8	14.815	-295.26	1002.6	-11.34	-179.92	1271.9	273.01	-270.31	1404.4	139.94	-24.554	607.85	195.18	-256.16	1109.3	230.06	-115.49	1453.6	-149.35	-574.2	96.962	-85.17	-239.24	1126.8	307.63	-256.64	504.04	-21.669	-294.26	356.91	-80.337	-161.28	840.1	313.87	-49.901	699.43	211.08	-362.97	298.6	-153.11	-435.36	25.834	-160.67	76.674	289.31	115.44	-117.41	1440	178.3	12.411	512.02	58.616	-401.25	205.1	-84.537	79.002	97.06	74.081	-345.57	283.62	-80.895	-505.66	116.13	-129.41	-333.62	27.296	-96.33	10.998	1670.1	-22.582	-227.51	842.99	352.94	72.713	382.21	123.09	-181.04	781.75	-175.89	-472.29	121.72	-47.272	13.861	1671.9	53.838	-5.2629	31.875	96.758	-383.68	37.023	-79.293	-73.888	1018.3	160.19
546	2.73	-166.88	804.57	370.91	-124.76	1293.7	-260.44	137.34	911.37	-301.88	-31.301	1011.8	-315.18	55.288	907.54	-295.07	79.372	196.29	110.67	-161.97	1624.2	-53.623	-115.95	1141.1	-309.58	239.58	42.243	131.85	-224.34	603.58	-157.17	19.604	721.43	178.24	140.58	23.707	184.77	107.31	952.98	-248.28	-149.15	1113.4	-243.32	52.218	280.68	179.63	190.55	41.858	109.22	-154.62	1630.7	87.576	-283.81	1003.8	66.754	-3.5874	1234.8	9.7909	6.2752	498.62	191.94	-183.2	1495.3	17.502	-76.287	790	217.44	-200.52	692.39	-165.77	-233.8	979.61	342.23	-133.57	678.08	-144.66	-287.58	1273.2	13.771	-265.13	505.19	-150.31	45.306	66.903	150.94	-84.213	1017.9	-122.34	-51.525	1407.4	16.091	-289.45	1002.8	-10.221	-173.49	1272.1	274.32	-264.48	1404.7	141.61	-18.568	608.56	196.09	-249.48	1109.3	231.38	-110.24	1454.2	-148.06	-571.31	102.13	-84.644	-232.44	1126.8	308.92	-248.26	503.4	-21.583	-287.4	356.71	-80.653	-154.58	840.06	314.83	-43.813	700.16	211.98	-357.3	299.69	-153.25	-434.97	27.05	-160.24	79.666	289	115.56	-111.56	1440.3	179.66	17.726	512.63	59.408	-396.8	206.68	-84.7	79.627	96.769	73.937	-339.89	284.29	-81.14	-502.8	119.52	-129.33	-333.91	27.22	-96.376	16.552	1670.6	-21.161	-220.68	843.04	354.07	76.798	381.94	123.38	-174.46	781.74	-174.88	-468.88	124.32	-47.412	19.429	1672.4	55.267	-5.1264	32.174	96.941	-383.33	36.9	-79.117	-67.689	1018.9	161.27
547	2.735	-159.91	804.62	371.87	-120.31	1294.1	-258.87	139.51	909.96	-301.4	-28.518	1011.5	-313.77	57.484	906.7	-294.23	81.165	195.99	110.65	-156.44	1624.8	-52.141	-112.27	1141.3	-307.72	240.3	40.657	131.52	-216.08	603.14	-156.78	25.652	722.05	179.13	140.66	23.547	184.98	110.03	951.74	-247.63	-145.22	1114	-241.22	55.392	280.58	179.9	190.91	41.112	109	-149.04	1631.3	89.045	-277.88	1004.4	67.943	2.1883	1235.5	10.901	11.662	498.99	192.7	-177.63	1495.8	19.027	-70.166	790.81	218.39	-193.03	692.18	-165.08	-226.82	979.72	343.43	-126.01	678.36	-143.82	-281.91	1273.7	15.25	-256.36	504.82	-150.24	45.846	66.99	150.88	-78.432	1018.5	-120.9	-45.934	1408.1	17.356	-283.67	1003.2	-9.0861	-167.03	1272.3	275.62	-258.63	1405	143.29	-12.797	609.24	197	-242.77	1109.4	232.7	-104.99	1454.9	-146.77	-568.07	107.55	-84.057	-225.59	1126.9	310.22	-239.56	502.72	-21.56	-280.21	356.55	-81.07	-147.73	840.13	315.75	-37.884	700.87	212.88	-351.35	300.88	-153.44	-434.45	28.443	-159.81	82.481	288.72	115.67	-105.69	1440.8	181.01	22.848	513.23	60.162	-392.03	208.36	-84.912	80.165	96.524	73.773	-333.88	285.02	-81.461	-499.65	123.09	-129.23	-334.19	27.159	-96.433	22.104	1671.2	-19.747	-213.69	843.17	355.18	80.677	381.68	123.65	-167.74	781.75	-173.88	-465.13	127.04	-47.572	24.993	1673	56.689	-5.0113	32.43	97.087	-382.91	36.811	-78.941	-61.514	1019.6	162.36
548	2.74	-152.77	804.77	372.8	-115.87	1294.5	-257.29	141.52	908.51	-300.93	-25.844	1011.3	-312.32	59.524	905.88	-293.37	82.828	195.71	110.62	-150.92	1625.5	-50.672	-108.65	1141.7	-305.81	240.94	39.274	131.24	-207.55	602.69	-156.45	31.533	722.6	180.01	140.72	23.474	185.16	112.63	950.47	-246.96	-141.33	1114.6	-239.06	58.357	280.47	180.15	191.23	40.527	108.79	-143.46	1631.9	90.499	-271.97	1005	69.147	7.9366	1236.3	11.997	16.765	499.33	193.41	-172.08	1496.4	20.542	-64.159	791.59	219.34	-185.34	691.97	-164.43	-219.73	979.91	344.62	-118.26	678.7	-142.98	-276.26	1274.2	16.731	-247.28	504.44	-150.23	46.304	67.09	150.79	-72.689	1019.3	-119.48	-40.351	1408.8	18.605	-277.93	1003.6	-7.932	-160.52	1272.6	276.92	-252.77	1405.5	144.97	-7.264	609.87	197.89	-236.02	1109.7	234.02	-99.752	1455.6	-145.46	-564.47	113.19	-83.419	-218.69	1127	311.52	-230.53	501.99	-21.594	-272.7	356.42	-81.582	-140.73	840.32	316.64	-32.129	701.54	213.76	-345.12	302.16	-153.68	-433.77	30.028	-159.37	85.123	288.44	115.75	-99.805	1441.3	182.34	27.76	513.8	60.876	-386.94	210.13	-85.171	80.627	96.314	73.592	-327.54	285.81	-81.852	-496.2	126.8	-129.12	-334.44	27.121	-96.506	27.652	1671.9	-18.343	-206.53	843.4	356.27	84.348	381.41	123.91	-160.89	781.78	-172.89	-461.04	129.86	-47.753	30.553	1673.6	58.1	-4.9154	32.644	97.2	-382.4	36.771	-78.77	-55.368	1020.5	163.46
549	2.745	-145.45	805.01	373.68	-111.44	1295	-255.68	143.36	907.03	-300.44	-23.274	1011.1	-310.84	61.416	905.06	-292.49	84.369	195.44	110.58	-145.4	1626.2	-49.218	-105.08	1142.1	-303.86	241.51	38.072	131	-198.78	602.23	-156.18	37.239	723.05	180.88	140.76	23.469	185.3	115.11	949.19	-246.29	-137.5	1115.2	-236.84	61.111	280.35	180.36	191.5	40.079	108.6	-137.9	1632.6	91.938	-266.09	1005.7	70.369	13.654	1237.2	13.077	21.569	499.61	194.07	-166.55	1497.1	22.045	-58.274	792.33	220.29	-177.47	691.76	-163.82	-212.55	980.16	345.82	-110.32	679.08	-142.16	-270.61	1274.8	18.215	-237.93	504.06	-150.28	46.69	67.196	150.68	-66.987	1020.1	-118.08	-34.781	1409.6	19.837	-272.22	1004.1	-6.7557	-153.99	1273	278.21	-246.9	1406	146.66	-1.9821	610.44	198.77	-229.25	1110	235.34	-94.524	1456.4	-144.15	-560.48	119.02	-82.737	-211.76	1127.3	312.84	-221.18	501.22	-21.679	-264.87	356.32	-82.178	-133.58	840.61	317.48	-26.56	702.17	214.62	-338.61	303.52	-153.97	-432.88	31.821	-158.94	87.599	288.16	115.83	-93.902	1441.9	183.65	32.449	514.32	61.554	-381.53	211.99	-85.474	81.025	96.132	73.4	-320.88	286.65	-82.305	-492.42	130.67	-128.99	-334.62	27.111	-96.599	33.192	1672.6	-16.95	-199.21	843.7	357.34	87.812	381.14	124.15	-153.92	781.82	-171.92	-456.6	132.79	-47.952	36.106	1674.3	59.497	-4.837	32.818	97.283	-381.77	36.802	-78.61	-49.255	1021.4	164.55
550	2.75	-137.96	805.35	374.53	-107.01	1295.5	-254.05	145.04	905.52	-299.94	-20.803	1011	-309.32	63.164	904.26	-291.57	85.796	195.17	110.55	-139.9	1627	-47.782	-101.57	1142.5	-301.88	242	37.033	130.79	-189.76	601.77	-155.96	42.762	723.4	181.75	140.78	23.513	185.41	117.47	947.89	-245.6	-133.7	1116	-234.58	63.653	280.21	180.55	191.73	39.747	108.43	-132.34	1633.3	93.359	-260.23	1006.4	71.607	19.337	1238	14.138	26.069	499.85	194.69	-161.04	1497.8	23.539	-52.518	793.04	221.23	-169.42	691.54	-163.25	-205.27	980.48	347.02	-102.21	679.51	-141.36	-264.99	1275.3	19.703	-228.31	503.68	-150.38	47.009	67.302	150.55	-61.331	1021	-116.72	-29.226	1410.4	21.05	-266.56	1004.7	-5.5554	-147.42	1273.5	279.5	-241.03	1406.5	148.35	3.0418	610.95	199.62	-222.46	1110.4	236.67	-89.314	1457.2	-142.82	-556.11	125.01	-82.022	-204.79	1127.6	314.16	-211.52	500.4	-21.802	-256.74	356.24	-82.843	-126.28	841	318.3	-21.183	702.74	215.46	-331.81	304.96	-154.3	-431.76	33.834	-158.52	89.915	287.89	115.9	-87.984	1442.5	184.94	36.911	514.78	62.198	-375.79	213.92	-85.812	81.366	95.971	73.203	-313.9	287.55	-82.811	-488.3	134.66	-128.85	-334.7	27.139	-96.719	38.722	1673.3	-15.574	-191.72	844.08	358.41	91.074	380.85	124.4	-146.83	781.87	-170.96	-451.81	135.79	-48.166	41.652	1675	60.877	-4.7747	32.958	97.339	-380.99	36.923	-78.468	-43.18	1022.4	165.64
